<svg width="282" height="220" xmlns="http://www.w3.org/2000/svg">
 <!-- Created with SVG Editor - http://github.com/mzalive/SVG Editor/ -->
 <g>
  <title>background</title>
  <rect fill="#fff" id="canvas_background" height="222" width="284" y="-1" x="-1"/>
  <g display="none" overflow="visible" y="0" x="0" height="100%" width="100%" id="canvasGrid">
   <rect fill="url(#gridpattern)" stroke-width="0" y="0" x="0" height="100%" width="100%"/>
  </g>
 </g>
 <g>
  <title>Layer 1</title>
  <path id="svg_4" d="m137.40704,4.952913c-71.791359,0 -130.000032,37.224462 -130.000032,83.14636c0,26.266457 19.108436,49.669626 48.859109,64.901458c-4.233104,13.504141 -12.680959,28.461021 -29.008467,41.68978c0,0 38.111907,-2.427628 65.030939,-28.697651c1.549725,0.365787 3.153836,0.641108 4.718223,0.978868c-1.470197,-4.221718 -2.335729,-8.610443 -2.335729,-13.176789c0,-30.982603 35.845198,-55.242747 81.626265,-55.242747c32.88278,0 60.551622,12.563664 73.576397,31.101051c11.087892,-12.236406 17.533274,-26.409339 17.533274,-41.564525c0,-45.911344 -58.208664,-83.135806 -129.999969,-83.135806l-0.000009,0zm111.014672,148.849109c0,-25.472428 -32.285414,-46.137876 -72.135247,-46.137876c-39.828094,0 -72.131708,20.665448 -72.131708,46.137876c0,25.486093 32.303614,46.141245 72.131708,46.141245c8.820799,0 17.221792,-1.062423 25.032495,-2.9153c14.933229,14.5839 36.08019,15.924936 36.08019,15.924936c-9.056068,-7.342622 -13.734522,-15.639602 -16.088389,-23.138789c16.497714,-8.443042 27.11095,-21.428364 27.11095,-36.012092z" stroke-opacity="null" stroke-width="1.5" stroke="#000" fill="#FFE2FF"/>
 </g>
</svg>