<svg width="350" height="400" xmlns="http://www.w3.org/2000/svg">
 <!-- Created with SVG Editor - http://github.com/mzalive/SVG Editor/ -->
 <g>
  <title>background</title>
  <rect fill="#fff" id="canvas_background" height="402" width="352" y="-1" x="-1"/>
  <g display="none" overflow="visible" y="0" x="0" height="100%" width="100%" id="canvasGrid">
   <rect fill="url(#gridpattern)" stroke-width="0" y="0" x="0" height="100%" width="100%"/>
  </g>
 </g>
 <g>
  <title>Layer 1</title>
  <path stroke="#000" id="svg_3" d="m53.013442,23.569352c9.606896,-14.703471 31.473246,-17.314361 48.038673,-19.303508c18.472725,1.643398 32.710017,15.898967 43.540241,29.684511c12.598619,11.267768 27.980592,20.829384 34.286071,37.326512c15.942298,7.819848 34.763264,12.002554 44.521736,28.733571c14.749529,18.874142 23.249402,41.719315 30.939208,63.850091c1.22106,16.497956 8.585275,31.548503 11.093794,47.897644c4.301886,16.208524 7.731219,32.232291 12.366551,48.297728c5.151656,16.702445 12.470437,32.5968 17.598885,49.322655c9.366721,14.678208 17.894579,30.164966 23.709968,46.511664c-13.914886,-1.167514 1.28523,20.831551 3.894875,29.504062c3.804935,17.850175 -17.044982,7.630638 -20.691017,-0.612625c-12.877328,12.059134 -39.240929,14.766804 -50.910415,-1.060711c-12.292627,-16.036878 -19.082014,-36.385175 -36.050923,-47.994174c-6.671979,-5.497865 -13.145489,-29.50489 -15.533244,-8.302918c8.472339,21.09446 -24.870148,9.071636 -36.713289,12.859853c-21.226515,-4.225623 8.05799,-16.235731 17.076642,-14.812835c8.473839,-8.347281 22.576115,-22.327369 2.333947,-26.709216c-13.86291,-5.45609 -31.635053,-19.292211 -39.429089,1.303021c-9.786842,5.124922 -27.327076,29.437944 -7.899634,31.229723c7.850338,15.907164 -22.655704,4.401487 -31.173916,8.163943c-8.031346,2.506701 -28.048212,-1.888427 -9.405162,-5.909851c16.039947,-2.607015 23.687556,-22.111609 33.757832,-33.9262c-0.333937,-15.158073 -12.590352,-27.188319 -21.777233,-38.633159c-9.773108,-16.131594 -23.409431,-29.948772 -30.200064,-47.60435c-4.454378,-18.3331 -12.935063,-35.283385 -17.236074,-53.658693c-4.855736,-18.414785 -10.424076,-39.178905 0.025119,-56.825339c4.762558,-15.482265 6.745664,-29.926912 -3.24871,-42.670439c-13.809713,-11.111571 -33.437005,-6.655067 -49.360328,-14.023716c-1.919147,-11.901005 23.575152,-16.441861 34.655517,-19.100202c4.206745,-0.144624 7.426608,-3.627974 11.790037,-3.53708l0,0.000039z" stroke-opacity="null" stroke-width="1.5" fill="#BF7E96"/>
 </g>
</svg>