<svg width="404" height="400" xmlns="http://www.w3.org/2000/svg">
 <!-- Created with SVG Editor - http://github.com/mzalive/SVG Editor/ -->
 <g>
  <title>background</title>
  <rect fill="#fff" id="canvas_background" height="402" width="406" y="-1" x="-1"/>
  <g display="none" overflow="visible" y="0" x="0" height="100%" width="100%" id="canvasGrid">
   <rect fill="url(#gridpattern)" stroke-width="0" y="0" x="0" height="100%" width="100%"/>
  </g>
 </g>
 <g>
  <title>Layer 1</title>
  <path id="svg_2" d="m228.288497,376.251563c-12.009304,-4.695956 -25.081381,2.168174 -37.911584,-4.671565c10.376285,-0.589469 25.968068,-0.044409 23.214611,-14.096654c4.540112,-16.409872 -4.673595,-33.625604 2.997006,-47.907188c-12.013142,-10.466811 -24.622329,-22.858976 -31.027198,-37.478461c-1.285434,5.897956 -2.470137,10.589775 -4.297026,0.421425c-1.047247,-4.976078 -0.411755,12.300452 -4.415773,0.178257c-4.223182,-10.779091 -15.592981,-38.885135 -19.120761,-12.816498c-1.46518,13.452165 -6.06308,3.907405 -8.164622,-4.629293c-2.135233,-16.438314 -9.847742,-31.666838 -11.867753,-48.073057c7.895031,-10.39283 -1.125486,-11.80789 -5.321591,-1.439477c-4.62065,16.448553 -8.579004,32.727981 -3.758742,49.673557c-6.40593,4.785383 -18.770481,-22.269296 -13.083493,-32.647103c4.933716,-11.742383 3.836763,-23.727946 4.657783,-31.671249c4.511048,-8.960646 -4.389158,-18.698077 0.341844,-28.253908c-12.089326,12.035787 -22.900389,20.360717 -19.504364,39.242842c-1.500598,4.710271 5.038597,31.795082 0.873978,21.821578c-7.862837,-19.469817 -7.868879,-41.032583 -1.951786,-60.899247c0.00728,-15.163737 -13.460565,26.186133 -12.46637,5.918284c-1.27463,-15.285421 5.62373,-32.093607 12.15702,-44.179084c-7.438496,-8.083116 -31.530881,-2.355465 -20.13327,-19.51507c11.216668,-8.721305 10.014589,-20.714125 -5.251353,-10.169008c-23.573231,15.810587 -43.131015,36.123279 -64.741235,54.078966c20.762584,-24.372584 44.169118,-47.957363 73.139118,-64.308412c28.089014,-16.152626 68.81896,-17.822559 93.05638,5.325262c6.164859,9.91534 20.494244,16.488327 23.910884,25.414468c-2.511624,13.379153 6.948338,20.013286 7.963909,31.772431c5.969724,9.073694 -5.385951,25.386982 11.601114,20.684478c19.323516,-0.024801 45.768693,-3.934493 47.280272,-25.943014c7.711951,-31.696809 11.262196,-67.109482 35.956777,-92.336001c13.724564,-7.326635 5.199797,-5.376741 -4.829406,-6.583524c-8.866366,-9.423064 8.949517,-24.549723 17.72039,-26.273994c-1.513076,-22.269967 14.334475,13.350909 18.864817,-2.999991c6.797765,0.118055 10.111809,15.011834 14.244343,2.855258c12.323934,9.522655 25.349054,23.927426 9.069774,37.189008c18.520238,8.107892 -18.871416,2.857221 -2.919093,15.279121c13.165801,11.620314 3.859173,33.086285 -6.948365,42.441244c-0.41977,7.033827 12.671697,17.252822 15.303945,25.786141c13.599368,24.041095 16.326251,52.64272 11.113991,78.987415c-7.338771,24.83023 -34.650906,35.635352 -53.962284,51.409359c-16.496023,12.349682 -10.691894,34.0102 -18.502264,50.228383c0.776567,9.365024 6.500661,20.029514 14.633702,25.682711c11.786398,6.014769 25.594466,9.89772 35.12449,18.704029c-8.703819,4.150822 -26.450157,-12.695858 -26.621807,0.484808c-12.929886,-15.33803 -32.340227,-5.046072 -46.552036,-16.841673c11.826933,2.058208 27.200436,0.9974 14.248874,-11.94277c-5.113992,-10.943145 -20.517036,-14.719548 -20.925662,-27.945369c-14.513595,8.320742 -24.389462,19.649267 -34.928484,30.944565c-17.495728,-0.998046 -18.250089,31.208273 0.641765,30.730448c7.758459,1.811958 36.87661,11.684194 13.947048,9.13412c-6.834544,-1.115145 -14.249078,-5.021158 -14.040064,2.307763c-3.134162,-0.514804 -5.932318,-1.938425 -8.817463,-3.074308l0.000014,0z" stroke-width="1.5" stroke="#000" fill="#9ACEE6"/>
 </g>
</svg>